<?xml version="1.0" encoding="UTF-8" standalone="no"?>
<!-- Generator: Adobe Illustrator 13.0.0, SVG Export Plug-In . SVG Version: 6.00 Build 14948)  -->

<svg
   xmlns:dc="http://purl.org/dc/elements/1.1/"
   xmlns:cc="http://creativecommons.org/ns#"
   xmlns:rdf="http://www.w3.org/1999/02/22-rdf-syntax-ns#"
   xmlns:svg="http://www.w3.org/2000/svg"
   xmlns="http://www.w3.org/2000/svg"
   xmlns:sodipodi="http://sodipodi.sourceforge.net/DTD/sodipodi-0.dtd"
   xmlns:inkscape="http://www.inkscape.org/namespaces/inkscape"
   version="1.0"
   id="Ebene_1"
   x="0px"
   y="0px"
   width="150"
   height="150"
   viewBox="-20.826 -16.359 150 150"
   enable-background="new -20.826 -16.359 100 100"
   xml:space="preserve"
   inkscape:version="0.91+devel+osxmenu r12922"
   sodipodi:docname="shape2.svg"><metadata
     id="metadata4193"><rdf:RDF><cc:Work
         rdf:about=""><dc:format>image/svg+xml</dc:format><dc:type
           rdf:resource="http://purl.org/dc/dcmitype/StillImage" /><dc:title></dc:title></cc:Work></rdf:RDF></metadata><defs
     id="defs4191" /><sodipodi:namedview
     pagecolor="#ffffff"
     bordercolor="#666666"
     borderopacity="1"
     objecttolerance="10"
     gridtolerance="10"
     guidetolerance="10"
     inkscape:pageopacity="0"
     inkscape:pageshadow="2"
     inkscape:window-width="1280"
     inkscape:window-height="751"
     id="namedview4189"
     showgrid="false"
     inkscape:zoom="1.18"
     inkscape:cx="11.180876"
     inkscape:cy="32.355882"
     inkscape:window-x="0"
     inkscape:window-y="23"
     inkscape:window-maximized="0"
     inkscape:current-layer="Ebene_1" /><g
     inkscape:groupmode="layer"
     id="shapes"
     inkscape:label="shapes"><path
       style="fill:#1e1e1e;stroke-width:1"
       d="m 53.899889,-16.11986 c -4.504601,0.0014 -8.155553,3.649624 -8.156912,8.1555848 0.0012,4.0391916 2.941311,7.38228554 6.796321,8.03213616 l 0,57.21387204 -18.132373,0 c -0.648145,-3.856233 -3.992106,-6.79643 -8.033463,-6.797646 -4.504601,6.79e-4 -8.154226,3.650304 -8.155585,8.155585 0.0014,4.503922 3.650304,8.154226 8.155585,8.155585 4.040455,-0.0014 7.383878,-2.940415 8.033463,-6.794996 l 18.132373,0 0,57.211219 c -3.855997,0.64857 -6.794994,3.99402 -6.794994,8.0348 0,4.50391 3.650304,8.15422 8.155585,8.15558 4.503922,-0.001 8.154258,-3.65166 8.154258,-8.15558 0,-4.04094 -2.939755,-7.38641 -6.794994,-8.0348 l 0,-57.211219 18.680591,0 c 0.649273,3.855214 3.993166,6.794385 8.033462,6.794996 4.504605,0 8.155562,-3.650338 8.156921,-8.15426 -0.0014,-4.505282 -3.652316,-8.155551 -8.156921,-8.15691 -4.040746,0.0014 -7.384718,2.940924 -8.033462,6.797646 l -18.680591,0 0,-57.21254472 c 3.855252,-0.64886039 6.795102,-3.99375198 6.796322,-8.03346348 -6.8e-4,-4.5052808 -3.651664,-8.1542248 -8.155586,-8.1555848 z m -0.0014,2.718528 c 3.002614,0.0048 5.432299,2.434442 5.437057,5.4370568 -0.0048,3.0026146 -2.435122,5.432979 -5.437057,5.4370568 -3.002615,-0.00476 -5.43162,-2.4344422 -5.437057,-5.4370568 0.0054,-3.0032938 2.434442,-5.4322998 5.437057,-5.4370568 z m -27.5251,66.603946 c 3.003293,0.0054 5.431619,2.435122 5.437057,5.437057 -0.0054,3.002615 -2.433764,5.431586 -5.437057,5.438383 -3.003295,-0.0068 -5.43162,-2.435768 -5.437057,-5.438382 0.0061,-3.001935 2.434442,-5.43162 5.437057,-5.437057 z m 55.599744,0.0014 c 3.002615,0.0048 5.430942,2.435122 5.437058,5.437057 -0.0061,3.002614 -2.434443,5.43094 -5.437058,5.437056 -3.000575,-0.0061 -5.430287,-2.435121 -5.435725,-5.437056 0.0054,-3.002615 2.43311,-5.432979 5.435725,-5.437057 z M 53.899857,119.80926 c 3.001935,0.005 5.430293,2.43308 5.43573,5.43705 -0.0054,3.00194 -2.433795,5.43029 -5.43573,5.43573 -3.001935,-0.005 -5.432947,-2.43379 -5.438384,-5.43573 0.0054,-3.00397 2.436449,-5.4323 5.438384,-5.43705 z"
       id="shape1"
       inkscape:connector-curvature="0" /></g></svg>