<?xml version="1.0" encoding="UTF-8" standalone="no"?>
<!-- Generator: Adobe Illustrator 13.0.2, SVG Export Plug-In . SVG Version: 6.00 Build 14948)  -->

<svg
   xmlns:dc="http://purl.org/dc/elements/1.1/"
   xmlns:cc="http://creativecommons.org/ns#"
   xmlns:rdf="http://www.w3.org/1999/02/22-rdf-syntax-ns#"
   xmlns:svg="http://www.w3.org/2000/svg"
   xmlns="http://www.w3.org/2000/svg"
   xmlns:sodipodi="http://sodipodi.sourceforge.net/DTD/sodipodi-0.dtd"
   xmlns:inkscape="http://www.inkscape.org/namespaces/inkscape"
   version="1.0"
   id="Ebene_1"
   x="0px"
   y="0px"
   width="150"
   height="150"
   viewBox="-20.826 -16.359 150 150"
   enable-background="new -20.826 -16.359 100 100"
   xml:space="preserve"
   inkscape:version="0.91+devel+osxmenu r12922"
   sodipodi:docname="shape4.svg"><metadata
     id="metadata4148"><rdf:RDF><cc:Work
         rdf:about=""><dc:format>image/svg+xml</dc:format><dc:type
           rdf:resource="http://purl.org/dc/dcmitype/StillImage" /><dc:title></dc:title></cc:Work></rdf:RDF></metadata><defs
     id="defs4146" /><sodipodi:namedview
     pagecolor="#ffffff"
     bordercolor="#666666"
     borderopacity="1"
     objecttolerance="10"
     gridtolerance="10"
     guidetolerance="10"
     inkscape:pageopacity="0"
     inkscape:pageshadow="2"
     inkscape:window-width="1280"
     inkscape:window-height="751"
     id="namedview4144"
     showgrid="false"
     inkscape:zoom="3.337544"
     inkscape:cx="52.38035"
     inkscape:cy="73.620585"
     inkscape:window-x="0"
     inkscape:window-y="23"
     inkscape:window-maximized="0"
     inkscape:current-layer="shapes"
     fit-margin-top="0"
     fit-margin-left="0"
     fit-margin-right="0"
     fit-margin-bottom="0"
     inkscape:snap-object-midpoints="true"
     inkscape:snap-bbox="true"
     inkscape:object-paths="true"
     inkscape:snap-center="true"
     inkscape:snap-intersection-paths="true"
     inkscape:snap-midpoints="true"
     inkscape:snap-smooth-nodes="true"
     showguides="true"
     inkscape:guide-bbox="true"><sodipodi:guide
       position="74.905379,63.519762"
       orientation="1,0"
       id="guide4164" /><sodipodi:guide
       position="101.87132,74.905379"
       orientation="0,1"
       id="guide4166" /></sodipodi:namedview><g
     inkscape:groupmode="layer"
     id="layer1"
     inkscape:label="guide"
     style="display:none"
     sodipodi:insensitive="true"><ellipse
       style="display:inline;opacity:1;fill:#ffa30a;fill-opacity:0;stroke:#000000;stroke-width:1.88976371;stroke-linecap:butt;stroke-linejoin:round;stroke-miterlimit:4;stroke-dasharray:none;stroke-dashoffset:0;stroke-opacity:1"
       id="path4155"
       cx="54.174"
       cy="58.640999"
       rx="46.455399"
       ry="67.599998" /></g><g
     inkscape:groupmode="layer"
     id="shapes"
     inkscape:label="shapes"
     style="display:inline"
     transform="translate(0,3.1421211)"><path
       style="display:inline;opacity:1;fill:#ffa30a;fill-opacity:0;stroke:#000000;stroke-width:1;stroke-linecap:butt;stroke-linejoin:round;stroke-miterlimit:4;stroke-dasharray:none;stroke-dashoffset:0;stroke-opacity:1"
       d="M 54.174,101.95428 A 67.599998,46.455399 0 0 1 -13.425999,55.498878 67.599998,46.455399 0 0 1 54.174,9.0434799 a 67.599998,46.455399 0 0 1 67.6,46.4553981 67.599998,46.455399 0 0 1 -67.6,46.455402 z"
       id="shape1"
       inkscape:connector-curvature="0" /><path
       style="display:inline;opacity:1;fill:#ffa30a;fill-opacity:0;stroke:#000000;stroke-width:1;stroke-linecap:butt;stroke-linejoin:round;stroke-miterlimit:4;stroke-dasharray:none;stroke-dashoffset:0;stroke-opacity:1"
       d="M 77.401695,95.730428 A 46.455399,67.599998 60 0 1 -4.3693177,89.298876 46.455399,67.599998 60 0 1 30.946299,15.267322 46.455399,67.599998 60 0 1 112.71731,21.698877 46.455399,67.599998 60 0 1 77.401695,95.730428 Z"
       id="shape2"
       inkscape:connector-curvature="0" /><path
       style="display:inline;opacity:1;fill:#ffa30a;fill-opacity:0;stroke:#000000;stroke-width:1;stroke-linecap:butt;stroke-linejoin:round;stroke-miterlimit:4;stroke-dasharray:none;stroke-dashoffset:0;stroke-opacity:1"
       d="M 94.405557,78.726579 A 46.455399,67.599998 30 0 1 20.373999,114.04219 46.455399,67.599998 30 0 1 13.942442,32.271178 46.455399,67.599998 30 0 1 87.973997,-3.0444389 46.455399,67.599998 30 0 1 94.405557,78.726579 Z"
       id="shape3"
       inkscape:connector-curvature="0" /><path
       style="display:inline;opacity:1;fill:#ffa30a;fill-opacity:0;stroke:#000000;stroke-width:1;stroke-linecap:butt;stroke-linejoin:round;stroke-miterlimit:4;stroke-dasharray:none;stroke-dashoffset:0;stroke-opacity:1"
       d="M 100.62939,55.498878 A 46.455399,67.599998 0 0 1 54.173996,123.09888 46.455399,67.599998 0 0 1 7.7185974,55.498878 46.455399,67.599998 0 0 1 54.173996,-12.10112 46.455399,67.599998 0 0 1 100.62939,55.498878 Z"
       id="shape4"
       inkscape:connector-curvature="0" /><path
       style="display:inline;opacity:1;fill:#ffa30a;fill-opacity:0;stroke:#000000;stroke-width:1;stroke-linecap:butt;stroke-linejoin:round;stroke-miterlimit:4;stroke-dasharray:none;stroke-dashoffset:0;stroke-opacity:1"
       d="M 94.405552,32.271178 A 67.599998,46.455399 60 0 1 87.973993,114.04219 67.599998,46.455399 60 0 1 13.942441,78.726577 67.599998,46.455399 60 0 1 20.373997,-3.044438 67.599998,46.455399 60 0 1 94.405552,32.271178 Z"
       id="shape5"
       inkscape:connector-curvature="0" /><path
       style="display:inline;opacity:1;fill:#ffa30a;fill-opacity:0;stroke:#000000;stroke-width:1;stroke-linecap:butt;stroke-linejoin:round;stroke-miterlimit:4;stroke-dasharray:none;stroke-dashoffset:0;stroke-opacity:1"
       d="M 77.401696,15.267324 A 67.599998,46.455399 30 0 1 112.71732,89.29888 67.599998,46.455399 30 0 1 30.946298,95.730434 67.599998,46.455399 30 0 1 -4.3693189,21.698879 67.599998,46.455399 30 0 1 77.401696,15.267324 Z"
       id="shape6"
       inkscape:connector-curvature="0" /></g></svg>